<svg xmlns="http://www.w3.org/2000/svg" viewBox="0 0 320 320"><circle cx="160" cy="160" r="158" fill="#fff"/><circle cx="160" cy="160" r="151" fill="none" stroke="#004A94" stroke-width="4"/><circle cx="160" cy="160" r="98" fill="#004A94"/><g fill="none" stroke="#fff" stroke-width="2.4" opacity=".55"><circle cx="160" cy="156" r="62"/><ellipse cx="160" cy="156" rx="22" ry="62"/><ellipse cx="160" cy="156" rx="44" ry="62"/><path d="M160 94V218"/><path d="M112.6 116H207.4"/><path d="M100.7 138H219.3"/><path d="M100.7 174H219.3"/><path d="M112.6 196H207.4"/></g><path fill="#004A94" d="M70.52 86.74Q68.22 89.63 65.28 90.88Q62.34 92.13 59.15 91.59Q55.96 91.05 52.87 88.59L52.09 87.96Q49.18 85.65 47.87 82.72Q46.56 79.78 46.99 76.63Q47.42 73.48 49.77 70.54Q51.41 68.48 53.43 67.09Q55.46 65.7 57.92 65.21L62.91 69.19L60.34 72.42L56.99 70.47Q56.3 70.69 55.65 71.02Q55 71.36 54.39 71.87Q53.79 72.37 53.23 73.07Q51.94 74.7 51.78 76.5Q51.62 78.31 52.56 80.12Q53.5 81.92 55.55 83.56L56.36 84.2Q58.34 85.78 60.35 86.29Q62.36 86.8 64.15 86.22Q65.93 85.65 67.23 84.03Q67.91 83.17 68.4 82.17Q68.89 81.17 69.18 80.19L66.72 77.49L69.3 74.26L74.19 78.16Q74.05 79.98 73.19 82.23Q72.33 84.47 70.52 86.74ZM80.89 74.49 78.87 71.86 80.68 69.78 69.81 55.63 67.33 56.85 65.3 54.2 81.28 41.93 85.62 47.59 82.24 50.19 80.37 48.08 74.54 52.55 78.12 57.21 84.8 52.08 87.44 55.52 80.76 60.65 84.86 65.99 90.98 61.29 89.36 58.86 92.72 56.28 97.13 62.02ZM103.58 57.98 102.27 54.93 104.54 53.36 97.5 36.97 94.8 37.54 93.48 34.45 104.83 29.57Q107.58 28.4 109.94 28.4Q112.31 28.41 114.07 29.56Q115.84 30.7 116.79 32.92Q117.67 34.98 117.33 37.15Q116.99 39.31 115.52 41.13Q114.05 42.95 111.6 44L107.4 45.76L109.71 51.14L112.4 50.58L113.71 53.64ZM118.6 51.53 110.86 43.38 114.87 40.07 121.23 46.2 123.56 45.79 124.87 48.84ZM105.7 41.79 109.38 40.21Q111.24 39.41 111.84 38.19Q112.44 36.96 111.78 35.41Q111.1 33.83 109.73 33.3Q108.36 32.76 106.54 33.55L102.84 35.14ZM137.15 46.14 136.65 42.85 139.24 41.91 136.64 24.72 132.36 25.37 132.57 28.29 128.39 28.92 127.3 21.75 150.31 18.26 151.4 25.44 147.16 26.08 146.51 23.23 142.2 23.88 144.8 41.07 147.56 41.2 148.06 44.49ZM160.57 43.87 160.74 40.55 163.47 40.15 164.41 22.33 161.73 21.65 161.91 18.31 172.9 18.89 172.72 22.22 170.01 22.63 169.07 40.44 171.73 41.13 171.56 44.45ZM178.29 44.99 179.1 41.77 181.86 41.9 186.21 24.6 183.72 23.41 184.53 20.17 204.62 25.22 202.85 32.26 198.7 31.22 199.25 28.33 191.56 26.39 189.97 32.72 198.53 34.87 197.48 39.05 188.92 36.89 187.32 43.27 189.79 44.45 188.98 47.68ZM204.45 52.71 205.87 49.71 208.55 50.37 216.15 34.23 213.94 32.58 215.36 29.56 225.31 34.25 223.89 37.27 221.23 36.62 213.62 52.76 215.82 54.4 214.41 57.4ZM220.46 60.43 222.43 57.76 224.93 58.93 235.55 44.59 233.7 42.54 235.69 39.86 251.88 51.84 247.63 57.58 244.2 55.04 245.72 52.66 239.81 48.29 236.32 53.01 243.08 58.02 240.5 61.51 233.73 56.5 229.73 61.91 235.93 66.5 237.82 64.27 241.23 66.79 236.92 72.61ZM242.59 77.69 245.17 75.59 247.37 77.32 261.1 66.18 259.87 63.66 262.47 61.56 264.18 63.68 269.78 70.57Q271.95 73.24 272.36 76.3Q272.77 79.37 271.51 82.31Q270.25 85.26 267.38 87.59L267.04 87.87Q264.19 90.18 261.05 90.82Q257.92 91.47 255.01 90.43Q252.1 89.4 249.93 86.72ZM251.17 81.48 253.05 83.8Q254.35 85.4 256.05 85.82Q257.75 86.24 259.66 85.62Q261.58 85.01 263.47 83.47L263.83 83.18Q265.74 81.63 266.73 79.89Q267.71 78.15 267.64 76.41Q267.58 74.66 266.28 73.07L264.4 70.75ZM65.23 267.59Q62.49 265.12 61.42 262.11Q60.34 259.1 61.07 255.95Q61.8 252.8 64.45 249.86L65.12 249.12Q67.6 246.36 70.61 245.22Q73.62 244.09 76.74 244.71Q79.85 245.33 82.65 247.84Q84.61 249.61 85.87 251.71Q87.14 253.82 87.48 256.3L83.21 261.04L80.14 258.28L82.28 255.06Q82.11 254.36 81.81 253.69Q81.52 253.02 81.05 252.38Q80.58 251.75 79.91 251.15Q78.37 249.76 76.58 249.49Q74.78 249.23 72.92 250.06Q71.06 250.89 69.31 252.84L68.62 253.61Q66.92 255.49 66.29 257.47Q65.66 259.44 66.13 261.26Q66.6 263.08 68.14 264.46Q68.95 265.19 69.92 265.75Q70.89 266.3 71.85 266.65L74.7 264.36L77.77 267.12L73.58 271.77Q71.77 271.52 69.58 270.53Q67.39 269.53 65.23 267.59ZM89.83 285.02Q87.54 283.74 86.12 281.83Q84.7 279.93 84.18 277.62Q83.66 275.31 84.08 272.83Q84.49 270.36 85.86 267.92L86.06 267.57Q87.42 265.14 89.31 263.51Q91.21 261.87 93.44 261.11Q95.67 260.34 98.04 260.56Q100.41 260.77 102.7 262.05Q104.97 263.32 106.39 265.24Q107.81 267.16 108.36 269.48Q108.91 271.81 108.53 274.29Q108.14 276.78 106.78 279.2L106.58 279.55Q105.22 281.99 103.29 283.62Q101.37 285.25 99.1 286Q96.84 286.74 94.47 286.52Q92.09 286.29 89.83 285.02ZM91.93 281.27Q93.73 282.27 95.49 282.01Q97.26 281.76 98.84 280.42Q100.42 279.07 101.69 276.81L101.91 276.42Q103.16 274.2 103.47 272.16Q103.78 270.11 103.08 268.47Q102.38 266.83 100.58 265.82Q98.74 264.79 97.02 265.06Q95.29 265.33 93.77 266.68Q92.24 268.03 90.98 270.29L90.76 270.67Q89.49 272.94 89.13 274.97Q88.76 277.01 89.44 278.62Q90.11 280.24 91.93 281.27ZM108.45 294.54 109.25 291.32 111.99 291.44 116.29 274.12 113.81 272.94 114.62 269.7 117.23 270.35 125.45 272.39 127.66 290.84 127.76 290.86 138.18 275.55 148.94 278.23 148.14 281.47 145.38 281.34 141.08 298.66 143.57 299.84 142.77 303.07 132.09 300.41 132.89 297.19 135.76 297.34 136.76 293.29 139.7 281.89 139.6 281.85 127.63 299.12 123.42 298.08 120.74 277.36 120.61 277.35 118.34 288.03 117.18 292.72 119.95 293.97 119.15 297.2ZM151.41 303.16 151.36 299.83 154.06 299.25 153.77 281.41 151.06 280.9 151.01 277.56 153.71 277.52 163.31 277.37Q166.31 277.32 168.52 278.33Q170.72 279.34 171.93 281.19Q173.14 283.05 173.18 285.54Q173.22 288.02 172.07 289.9Q170.92 291.79 168.75 292.86Q166.58 293.93 163.57 293.98L159.6 294.04L159.68 299.16L162.38 299.66L162.43 302.98ZM159.53 289.72 163.5 289.65Q165.54 289.62 166.56 288.5Q167.58 287.37 167.55 285.67Q167.53 283.89 166.47 282.77Q165.42 281.64 163.38 281.67L159.41 281.74ZM181.6 301.93 180.81 298.7 182.52 298.01 184.97 274.76 190.73 273.35 203.6 292.87 205.42 292.69 206.21 295.92 197.36 298.08 196.57 294.85 198.17 294.14 196.48 291.29 188.1 293.34 187.94 296.63 189.69 296.53 190.48 299.76ZM188.37 289.11 194.29 287.66 189.66 280.25 189.21 279.51 189.11 279.54 189.05 280.48ZM214.22 292.99 212.68 290.04 214.8 288.33 206.57 272.5 203.94 273.25 202.4 270.28 204.77 269.05 209.86 266.41 227.26 276.63 227.35 276.57 221.26 264.85 218.06 265.9 216.52 262.94 223.91 259.1 226.29 257.86 227.84 260.82 225.7 262.54 235.72 281.8 230.84 284.34 213.35 274.46 213.26 274.5 219.25 286.01 222.46 284.96 223.99 287.9ZM250.25 271.06 248.06 268.56 249.72 266.38 246.58 262.81 232.19 257.8 230.01 259.22 227.81 256.71 235.8 249.69 238 252.2 236.8 253.65 244.77 256.81 245.63 257.17 245.72 257.09 245.5 256.21 243.77 247.53 241.52 249.11 239.31 246.6 247.13 239.73 249.33 242.24 247.62 244.24 250.51 258.78 253.93 262.68 256.32 261.3 258.52 263.8Z"/><path fill="#004A94" stroke="#004A94" stroke-width="7" stroke-linejoin="round" d="M98.3 182V175.17L103.86 174.05V137.38L98.3 136.26V129.39H120.92V136.26L115.39 137.38V174.05L120.92 175.17V182ZM147.64 182.76Q141.54 182.76 136.66 181.49Q131.78 180.23 127.01 176.94V163.75H135.94L137.06 171.02Q138.43 172.35 141.32 173.22Q144.21 174.09 147.64 174.09Q150.28 174.09 152.09 173.38Q153.89 172.68 154.83 171.36Q155.77 170.04 155.77 168.23Q155.77 166.5 154.92 165.14Q154.07 163.79 152.12 162.63Q150.17 161.48 146.85 160.36Q140.34 158.37 136.13 156.15Q131.92 153.92 129.85 150.87Q127.77 147.82 127.77 143.37Q127.77 139.07 130.21 135.8Q132.65 132.53 136.91 130.66Q141.17 128.78 146.74 128.7Q152.99 128.56 157.8 130.04Q162.6 131.52 166.18 134.3V146.55H157.58L156.13 139.44Q154.83 138.68 152.54 138.1Q150.24 137.52 147.46 137.52Q145.08 137.52 143.25 138.19Q141.43 138.86 140.36 140.18Q139.3 141.5 139.3 143.41Q139.3 144.96 140.2 146.19Q141.1 147.42 143.31 148.56Q145.51 149.7 149.41 151.07Q158.23 153.6 162.8 157.57Q167.37 161.55 167.37 168.16Q167.37 172.75 164.9 176.02Q162.42 179.29 157.98 181.02Q153.53 182.76 147.64 182.76ZM196.81 182.76Q191.42 182.76 186.96 180.77Q182.5 178.78 179.25 175.17Q176 171.56 174.24 166.7Q172.49 161.84 172.49 156.09V155.26Q172.49 149.55 174.24 144.71Q176 139.87 179.23 136.26Q182.46 132.64 186.93 130.64Q191.39 128.63 196.77 128.63Q202.12 128.63 206.6 130.64Q211.08 132.64 214.4 136.26Q217.73 139.87 219.54 144.71Q221.34 149.55 221.34 155.26V156.09Q221.34 161.84 219.54 166.7Q217.73 171.56 214.42 175.17Q211.12 178.78 206.64 180.77Q202.16 182.76 196.81 182.76ZM196.81 173.91Q201.04 173.91 203.94 171.67Q206.85 169.43 208.33 165.43Q209.82 161.44 209.82 156.09V155.19Q209.82 149.95 208.32 145.98Q206.82 142 203.91 139.76Q201 137.52 196.77 137.52Q192.44 137.52 189.62 139.74Q186.8 141.96 185.43 145.92Q184.05 149.88 184.05 155.19V156.09Q184.05 161.44 185.44 165.45Q186.83 169.46 189.67 171.68Q192.51 173.91 196.81 173.91Z"/><path fill="#fff" d="M98.3 182V175.17L103.86 174.05V137.38L98.3 136.26V129.39H120.92V136.26L115.39 137.38V174.05L120.92 175.17V182ZM147.64 182.76Q141.54 182.76 136.66 181.49Q131.78 180.23 127.01 176.94V163.75H135.94L137.06 171.02Q138.43 172.35 141.32 173.22Q144.21 174.09 147.64 174.09Q150.28 174.09 152.09 173.38Q153.89 172.68 154.83 171.36Q155.77 170.04 155.77 168.23Q155.77 166.5 154.92 165.14Q154.07 163.79 152.12 162.63Q150.17 161.48 146.85 160.36Q140.34 158.37 136.13 156.15Q131.92 153.92 129.85 150.87Q127.77 147.82 127.77 143.37Q127.77 139.07 130.21 135.8Q132.65 132.53 136.91 130.66Q141.17 128.78 146.74 128.7Q152.99 128.56 157.8 130.04Q162.6 131.52 166.18 134.3V146.55H157.58L156.13 139.44Q154.83 138.68 152.54 138.1Q150.24 137.52 147.46 137.52Q145.08 137.52 143.25 138.19Q141.43 138.86 140.36 140.18Q139.3 141.5 139.3 143.41Q139.3 144.96 140.2 146.19Q141.1 147.42 143.31 148.56Q145.51 149.7 149.41 151.07Q158.23 153.6 162.8 157.57Q167.37 161.55 167.37 168.16Q167.37 172.75 164.9 176.02Q162.42 179.29 157.98 181.02Q153.53 182.76 147.64 182.76ZM196.81 182.76Q191.42 182.76 186.96 180.77Q182.5 178.78 179.25 175.17Q176 171.56 174.24 166.7Q172.49 161.84 172.49 156.09V155.26Q172.49 149.55 174.24 144.71Q176 139.87 179.23 136.26Q182.46 132.64 186.93 130.64Q191.39 128.63 196.77 128.63Q202.12 128.63 206.6 130.64Q211.08 132.64 214.4 136.26Q217.73 139.87 219.54 144.71Q221.34 149.55 221.34 155.26V156.09Q221.34 161.84 219.54 166.7Q217.73 171.56 214.42 175.17Q211.12 178.78 206.64 180.77Q202.16 182.76 196.81 182.76ZM196.81 173.91Q201.04 173.91 203.94 171.67Q206.85 169.43 208.33 165.43Q209.82 161.44 209.82 156.09V155.19Q209.82 149.95 208.32 145.98Q206.82 142 203.91 139.76Q201 137.52 196.77 137.52Q192.44 137.52 189.62 139.74Q186.8 141.96 185.43 145.92Q184.05 149.88 184.05 155.19V156.09Q184.05 161.44 185.44 165.45Q186.83 169.46 189.67 171.68Q192.51 173.91 196.81 173.91ZM115.99 220.22Q115.21 220.22 114.38 220.06Q113.55 219.9 112.84 219.59L113.19 217.23Q113.84 217.46 114.53 217.59Q115.22 217.71 115.83 217.71Q117.09 217.71 117.81 216.88Q118.53 216.05 118.54 214.34L118.53 214.06Q118 214.7 117.31 215.02Q116.62 215.33 115.79 215.33Q114.51 215.33 113.53 214.71Q112.55 214.09 112.01 212.94Q111.47 211.79 111.47 210.2Q111.47 208.69 112.12 207.49Q112.78 206.28 113.94 205.57Q115.11 204.85 116.59 204.85Q118.11 204.85 119.28 205.58Q120.45 206.3 121.11 207.66Q121.76 209.02 121.76 210.92V214.32Q121.76 216.13 121.02 217.46Q120.28 218.78 118.97 219.5Q117.67 220.22 115.99 220.22ZM116.64 212.98Q117.19 212.98 117.68 212.75Q118.17 212.52 118.49 212.14V210.53Q118.49 208.98 117.97 208.17Q117.45 207.37 116.6 207.37Q116.04 207.37 115.63 207.76Q115.21 208.15 114.98 208.79Q114.75 209.43 114.75 210.2Q114.75 211.04 114.95 211.66Q115.16 212.29 115.57 212.63Q115.99 212.98 116.64 212.98ZM129.12 220.22Q126.74 220.22 125.35 218.68Q123.96 217.14 123.96 214.16V210.93Q123.96 207.94 125.35 206.4Q126.73 204.85 129.1 204.85Q131.45 204.85 132.84 206.4Q134.24 207.94 134.24 210.93V214.16Q134.24 217.15 132.85 218.68Q131.47 220.22 129.12 220.22ZM129.12 217.71Q130.02 217.71 130.5 216.93Q130.98 216.15 130.98 214.4V210.66Q130.98 208.93 130.49 208.15Q130 207.37 129.1 207.37Q128.18 207.37 127.7 208.14Q127.23 208.92 127.23 210.66V214.4Q127.23 216.17 127.71 216.94Q128.19 217.71 129.12 217.71ZM141.62 220.22Q139.24 220.22 137.85 218.68Q136.46 217.14 136.46 214.16V210.93Q136.46 207.94 137.85 206.4Q139.23 204.85 141.6 204.85Q143.95 204.85 145.34 206.4Q146.74 207.94 146.74 210.93V214.16Q146.74 217.15 145.35 218.68Q143.97 220.22 141.62 220.22ZM141.62 217.71Q142.52 217.71 143 216.93Q143.48 216.15 143.48 214.4V210.66Q143.48 208.93 142.99 208.15Q142.5 207.37 141.6 207.37Q140.68 207.37 140.2 208.14Q139.72 208.92 139.72 210.66V214.4Q139.72 216.17 140.2 216.94Q140.69 217.71 141.62 217.71ZM148.53 220V218.06L151.11 217.74V207.95L148.51 207.94V206.1L154.39 205.07V217.74L156.98 218.06V220ZM158.76 220V217.21H162.03V220ZM158.76 211.7V208.92H162.03V211.7ZM164 220V217.88L168.83 212.74Q169.52 211.95 169.92 211.36Q170.32 210.77 170.5 210.28Q170.67 209.79 170.67 209.32Q170.67 208.52 170.23 207.96Q169.78 207.4 168.9 207.4Q167.95 207.4 167.48 208.03Q167 208.67 167 209.78H163.8L163.78 209.72Q163.75 208.34 164.37 207.24Q164.99 206.15 166.16 205.5Q167.33 204.85 168.92 204.85Q170.5 204.85 171.62 205.41Q172.74 205.96 173.35 206.96Q173.96 207.95 173.96 209.27Q173.96 210.18 173.65 210.96Q173.33 211.75 172.64 212.62Q171.94 213.5 170.82 214.69L168.22 217.46L168.24 217.51H171.68L171.83 216.17H174.33V220ZM181.51 220.22Q179.13 220.22 177.74 218.68Q176.35 217.14 176.35 214.16V210.93Q176.35 207.94 177.73 206.4Q179.12 204.85 181.49 204.85Q183.84 204.85 185.23 206.4Q186.62 207.94 186.62 210.93V214.16Q186.62 217.15 185.24 218.68Q183.86 220.22 181.51 220.22ZM181.51 217.71Q182.41 217.71 182.89 216.93Q183.36 216.15 183.36 214.4V210.66Q183.36 208.93 182.88 208.15Q182.39 207.37 181.49 207.37Q180.56 207.37 180.09 208.14Q179.61 208.92 179.61 210.66V214.4Q179.61 216.17 180.09 216.94Q180.57 217.71 181.51 217.71ZM188.42 220V218.06L191 217.74V207.95L188.4 207.94V206.1L194.28 205.07V217.74L196.87 218.06V220ZM203.59 220.22Q202.2 220.22 201.02 219.7Q199.84 219.18 199.14 218.22Q198.45 217.26 198.48 215.96L198.5 215.92L201.68 215.72Q201.68 216.66 202.21 217.19Q202.73 217.71 203.59 217.71Q204.56 217.71 205 217.01Q205.45 216.3 205.45 215.22Q205.45 213.98 204.97 213.24Q204.49 212.49 203.49 212.49Q202.74 212.49 202.31 212.8Q201.88 213.11 201.69 213.59L198.76 213.42L199.62 205.07H208.43V208.61H206.48L206.19 207.65H202.31L201.9 210.87Q202.17 210.68 202.53 210.53Q202.88 210.37 203.3 210.28Q203.72 210.19 204.17 210.19Q205.63 210.16 206.65 210.75Q207.66 211.34 208.18 212.47Q208.71 213.6 208.71 215.2Q208.71 216.62 208.12 217.75Q207.53 218.89 206.38 219.55Q205.24 220.22 203.59 220.22Z"/></svg>
